<svg width="1387" height="1040" xmlns="http://www.w3.org/2000/svg" xmlns:xlink="http://www.w3.org/1999/xlink" overflow="hidden"><defs><clipPath id="clip0"><path d="M0 0 1387 0 1387 1040 0 1040Z" fill-rule="evenodd" clip-rule="evenodd"/></clipPath></defs><g clip-path="url(#clip0)"><rect x="0" y="0" width="1386.67" height="1040" fill="#FFFFFF" transform="scale(1.00024 1)"/><rect x="0" y="0" width="395.905" height="59" stroke="#000000" stroke-miterlimit="8" stroke-dasharray="4 3" fill="#D0CECE" transform="matrix(1.00024 0 -0 1 152.5 181.5)"/><rect x="0" y="0" width="103.975" height="154" stroke="#000000" stroke-width="2" stroke-miterlimit="8" fill="none" transform="matrix(1.00024 0 -0 1 158 77)"/><text font-family="SimSun,SimSun_MSFontService,sans-serif" font-weight="400" font-size="9" transform="matrix(1 0 0 0.99976 191.048 70)">建立模型<tspan x="157.892" y="0">部署</tspan></text><rect x="0" y="0" width="125.97" height="31" stroke="#000000" stroke-width="2" stroke-miterlimit="8" fill="none" transform="matrix(1.00024 0 -0 1 296 83)"/><text font-family="DengXian,DengXian_MSFontService,sans-serif" font-weight="400" font-size="9" transform="matrix(1 0 0 0.99976 340.046 96)">交叉编译<tspan font-family="Times New Roman,Times New Roman_MSFontService,sans-serif" x="-31.9277" y="11.0026">( RISC</tspan><tspan font-family="Times New Roman,Times New Roman_MSFontService,sans-serif" x="-5.7547" y="11.0026">-</tspan><tspan font-family="Times New Roman,Times New Roman_MSFontService,sans-serif" x="-2.58728" y="11.0026">V GNU toolchain )</tspan></text><rect x="0" y="0" width="91.9778" height="32" stroke="#000000" stroke-width="2" stroke-miterlimit="8" fill="none" transform="matrix(1.00024 0 -0 1 164 83)"/><text font-family="Times New Roman,Times New Roman_MSFontService,sans-serif" font-weight="400" font-size="9" transform="matrix(1 0 0 0.99976 188.333 97)">Source File<tspan x="3.0874" y="11.0026">(RL </tspan><tspan font-family="DengXian,DengXian_MSFontService,sans-serif" x="20.4249" y="11.0026">模型</tspan><tspan x="39.0961" y="11.0026">)</tspan></text><path d="M0-1.25001-24.4935-1.25001-24.4935 0-26.9935-2.5-24.4935-5-24.4935-3.75001 0-3.75001Z" stroke="#000000" stroke-width="1.33333" stroke-miterlimit="8" fill-rule="evenodd" transform="matrix(-1.00024 -0 -0 1 262.5 101.5)"/><rect x="0" y="0" width="407.902" height="191" stroke="#000000" stroke-miterlimit="8" stroke-dasharray="4 3" fill="none" transform="matrix(1.00024 0 -0 1 146.5 54.5001)"/><rect x="0" y="0" width="84.9796" height="154" stroke="#000000" stroke-width="2" stroke-miterlimit="8" fill="none" transform="matrix(1.00024 0 -0 1 456 77)"/><text font-family="SimSun,SimSun_MSFontService,sans-serif" font-weight="400" font-size="9" transform="matrix(1 0 0 0.99976 465.898 152)">支持<tspan x="18.6712" y="0">RISC</tspan><tspan x="37.3423" y="0">-</tspan><tspan x="42.0101" y="0">V</tspan><tspan x="46.6779" y="0">指令</tspan><tspan x="0" y="11.0026">架构的微处理器</tspan><tspan x="23.3388" y="-82.0197">执行</tspan></text><rect x="0" y="0" width="125.97" height="32" stroke="#000000" stroke-width="2" stroke-miterlimit="8" fill="none" transform="matrix(1.00024 0 -0 1 296 138)"/><text font-family="SimSun,SimSun_MSFontService,sans-serif" font-weight="400" font-size="9" transform="matrix(1 0 0 0.99976 314.286 157)">基于<tspan font-family="Times New Roman,Times New Roman_MSFontService,sans-serif" x="18.6712" y="0">Hypervisor</tspan><tspan x="60.848" y="0">虚拟机</tspan></text><path d="M0-1.25001-24.4935-1.25001-24.4935 0-26.9935-2.5-24.4935-5-24.4935-3.75001 0-3.75001Z" stroke="#000000" stroke-width="1.33333" stroke-miterlimit="8" fill-rule="evenodd" transform="matrix(-1.00024 -0 -0 1 262.5 156.5)"/><rect x="0" y="0" width="125.97" height="31" stroke="#000000" stroke-width="2" stroke-miterlimit="8" fill="none" transform="matrix(1.00024 0 -0 1 295 193)"/><text font-family="DengXian,DengXian_MSFontService,sans-serif" font-weight="400" font-size="9" transform="matrix(1 0 0 0.99976 344.272 212)">容器化</text><path d="M0-1.25001-24.4935-1.25001-24.4935 0-26.9935-2.5-24.4935-5-24.4935-3.75001 0-3.75001Z" stroke="#000000" stroke-width="1.33333" stroke-miterlimit="8" fill-rule="evenodd" transform="matrix(-1.00024 -0 -0 1 262.5 211.5)"/><rect x="0" y="0" width="91.9778" height="32" stroke="#000000" stroke-width="2" stroke-miterlimit="8" fill="none" transform="matrix(1.00024 0 -0 1 164 192)"/><text font-family="Times New Roman,Times New Roman_MSFontService,sans-serif" font-weight="400" font-size="9" transform="matrix(1 0 0 0.99976 188.333 206)">Source File<tspan x="3.0874" y="11.0026">(RL </tspan><tspan font-family="DengXian,DengXian_MSFontService,sans-serif" x="20.4249" y="11.0026">模型</tspan><tspan x="39.0961" y="11.0026">)</tspan></text><rect x="0" y="0" width="135.967" height="155" stroke="#000000" stroke-width="2" stroke-miterlimit="8" fill="none" transform="matrix(1.00024 0 -0 1 291 76)"/><path d="M0-1.25001-24.4935-1.25001-24.4935 0-26.9935-2.5-24.4935-5-24.4935-3.75001 0-3.75001Z" stroke="#000000" stroke-width="1.33333" stroke-miterlimit="8" fill-rule="evenodd" transform="matrix(-1.00024 -0 -0 1 427.5 101.5)"/><path d="M0-1.25001-24.4935-1.25001-24.4935 0-26.9935-2.5-24.4935-5-24.4935-3.75001 0-3.75001Z" stroke="#000000" stroke-width="1.33333" stroke-miterlimit="8" fill-rule="evenodd" transform="matrix(-1.00024 -0 -0 1 427.5 156.5)"/><path d="M0-1.25-23.4937-1.25-23.4937 0-25.9937-2.5-23.4937-5-23.4937-3.75 0-3.75Z" stroke="#000000" stroke-width="1.33333" stroke-miterlimit="8" fill-rule="evenodd" transform="matrix(-1.00024 -0 -0 1 428.5 211.5)"/><rect x="0" y="0" width="91.9778" height="31" stroke="#000000" stroke-width="2" stroke-miterlimit="8" fill="none" transform="matrix(1.00024 0 -0 1 164 138)"/><text font-family="Times New Roman,Times New Roman_MSFontService,sans-serif" font-weight="400" font-size="9" transform="matrix(1 0 0 0.99976 188.333 151)">Source File<tspan x="3.08742" y="11.0026">(RL </tspan><tspan font-family="DengXian,DengXian_MSFontService,sans-serif" x="20.4249" y="11.0026">模型</tspan><tspan x="39.0961" y="11.0026">)</tspan></text></g></svg>