<svg width="1387" height="1040" xmlns="http://www.w3.org/2000/svg" xmlns:xlink="http://www.w3.org/1999/xlink" overflow="hidden"><defs><clipPath id="clip0"><path d="M0 0 1387 0 1387 1040 0 1040Z" fill-rule="evenodd" clip-rule="evenodd"/></clipPath></defs><g clip-path="url(#clip0)"><rect x="0" y="0" width="1386.67" height="1040" fill="#FFFFFF" transform="scale(1.00024 1)"/><rect x="0" y="0" width="91.9778" height="177" stroke="#000000" stroke-miterlimit="8" stroke-dasharray="4 3" fill="#D0CECE" transform="matrix(1.00024 0 -0 1 344.5 250.5)"/><rect x="0" y="0" width="256.938" height="41" stroke="#000000" stroke-width="2" stroke-miterlimit="8" fill="none" transform="matrix(1.00024 0 -0 1 174 256)"/><rect x="0" y="0" width="77.9813" height="41" stroke="#000000" stroke-width="2" stroke-miterlimit="8" fill="none" transform="matrix(1.00024 0 -0 1 179 326)"/><text font-family="DengXian,DengXian_MSFontService,sans-serif" font-weight="400" font-size="9" transform="matrix(1 0 0 0.99976 199.163 338)">交叉编译<tspan font-family="Times New Roman,Times New Roman_MSFontService,sans-serif" x="-10.5025" y="11.0026">( RISC</tspan><tspan font-family="Times New Roman,Times New Roman_MSFontService,sans-serif" x="15.6704" y="11.0026">-</tspan><tspan font-family="Times New Roman,Times New Roman_MSFontService,sans-serif" x="18.8379" y="11.0026">V GNU </tspan><tspan font-family="Times New Roman,Times New Roman_MSFontService,sans-serif" x="-1.58705" y="22.0053">toolchain )</tspan></text><rect x="0" y="0" width="76.9815" height="31" stroke="#000000" stroke-width="2" stroke-miterlimit="8" fill="none" transform="matrix(1.00024 0 -0 1 179 261)"/><text font-family="Times New Roman,Times New Roman_MSFontService,sans-serif" font-weight="400" font-size="9" transform="matrix(1 0 0 0.99976 196.112 274)">Source File<tspan x="3.0874" y="11.0026">(RL </tspan><tspan font-family="DengXian,DengXian_MSFontService,sans-serif" x="20.4249" y="11.0026">模型</tspan><tspan x="39.0961" y="11.0026">)</tspan></text><path d="M0 1.24973 24.5006 1.24973 24.5006 0 27 2.49942 24.5006 4.99884 24.5006 3.74915 0 3.74915Z" stroke="#000000" stroke-width="1.33333" stroke-miterlimit="8" fill-rule="evenodd" transform="matrix(-4.37114e-08 1 1.00024 4.37219e-08 215.5 297.5)"/><rect x="0" y="0" width="266.936" height="177" stroke="#000000" stroke-miterlimit="8" stroke-dasharray="4 3" fill="none" transform="matrix(1.00024 0 -0 1 169.5 250.5)"/><rect x="0" y="0" width="256.938" height="26" stroke="#000000" stroke-width="2" stroke-miterlimit="8" fill="none" transform="matrix(1.00024 0 -0 1 174 397)"/><text font-family="SimSun,SimSun_MSFontService,sans-serif" font-weight="400" font-size="9" transform="matrix(1 0 0 0.99976 255.995 409)">支持<tspan x="18.6712" y="0">RISC</tspan><tspan x="37.3423" y="0">-</tspan><tspan x="42.0101" y="0">V</tspan><tspan x="46.6779" y="0">指令架构</tspan><tspan x="84.0202" y="0">的</tspan><tspan x="28.0067" y="11.0026">微处理器</tspan></text><rect x="0" y="0" width="76.9815" height="41" stroke="#000000" stroke-width="2" stroke-miterlimit="8" fill="none" transform="matrix(1.00024 0 -0 1 262 325)"/><text font-family="Times New Roman,Times New Roman_MSFontService,sans-serif" font-weight="400" font-size="9" transform="matrix(1 0 0 0.99976 279.486 343)">Hypervisor<tspan font-family="SimSun,SimSun_MSFontService,sans-serif" x="7.0817" y="11.0026">虚拟机</tspan></text><rect x="0" y="0" width="74.9819" height="41" stroke="#000000" stroke-width="2" stroke-miterlimit="8" fill="none" transform="matrix(1.00024 0 -0 1 351 325)"/><text font-family="DengXian,DengXian_MSFontService,sans-serif" font-weight="400" font-size="9" transform="matrix(1 0 0 0.99976 374.445 349)">容器化</text><rect x="0" y="0" width="76.9815" height="32" stroke="#000000" stroke-width="2" stroke-miterlimit="8" fill="none" transform="matrix(1.00024 0 -0 1 349 261)"/><text font-family="Times New Roman,Times New Roman_MSFontService,sans-serif" font-weight="400" font-size="9" transform="matrix(1 0 0 0.99976 366.028 275)">Source File<tspan x="3.0874" y="11.0026">(RL </tspan><tspan font-family="DengXian,DengXian_MSFontService,sans-serif" x="20.4249" y="11.0026">模型</tspan><tspan x="39.096" y="11.0026">)</tspan></text><rect x="0" y="0" width="76.9815" height="31" stroke="#000000" stroke-width="2" stroke-miterlimit="8" fill="none" transform="matrix(1.00024 0 -0 1 262 261)"/><text font-family="Times New Roman,Times New Roman_MSFontService,sans-serif" font-weight="400" font-size="9" transform="matrix(1 0 0 0.99976 279.07 274)">Source File<tspan x="3.0874" y="11.0026">(RL </tspan><tspan font-family="DengXian,DengXian_MSFontService,sans-serif" x="20.4249" y="11.0026">模型</tspan><tspan x="39.096" y="11.0026">)</tspan></text><path d="M0 1.24973 24.5006 1.24973 24.5006 0 27 2.49942 24.5006 4.99884 24.5006 3.74915 0 3.74915Z" stroke="#000000" stroke-width="1.33333" stroke-miterlimit="8" fill-rule="evenodd" transform="matrix(-4.37114e-08 1 1.00024 4.37219e-08 385.5 297.5)"/><path d="M0 1.2497 24.5006 1.2497 24.5006 0 27 2.49937 24.5006 4.99874 24.5006 3.74907 0 3.74907Z" stroke="#000000" stroke-width="1.33333" stroke-miterlimit="8" fill-rule="evenodd" transform="matrix(-4.37114e-08 1 1.00024 4.37219e-08 299.5 296.5)"/><path d="M0 1.24973 24.5006 1.24973 24.5006 0 27 2.49942 24.5006 4.99884 24.5006 3.74915 0 3.74915Z" stroke="#000000" stroke-width="1.33333" stroke-miterlimit="8" fill-rule="evenodd" transform="matrix(-4.37114e-08 1 1.00024 4.37219e-08 215.5 368.5)"/><path d="M0 1.24973 24.5006 1.24973 24.5006 0 27 2.49942 24.5006 4.99884 24.5006 3.74915 0 3.74915Z" stroke="#000000" stroke-width="1.33333" stroke-miterlimit="8" fill-rule="evenodd" transform="matrix(-4.37114e-08 1 1.00024 4.37219e-08 384.5 368.5)"/><path d="M0 1.2497 24.5006 1.2497 24.5006 0 27 2.49937 24.5006 4.99874 24.5006 3.74907 0 3.74907Z" stroke="#000000" stroke-width="1.33333" stroke-miterlimit="8" fill-rule="evenodd" transform="matrix(-4.37114e-08 1 1.00024 4.37219e-08 299.5 368.5)"/></g></svg>