<svg width="960" height="540" xmlns="http://www.w3.org/2000/svg" xmlns:xlink="http://www.w3.org/1999/xlink" overflow="hidden"><defs><clipPath id="clip0"><path d="M0 0 960 0 960 540 0 540Z" fill-rule="evenodd" clip-rule="evenodd"/></clipPath></defs><g clip-path="url(#clip0)"><rect x="0" y="0" width="960" height="540" fill="#FFFFFF"/><rect x="163.5" y="224.5" width="74" height="30" stroke="#000000" stroke-width="1.33333" stroke-miterlimit="8" fill="none"/><text font-family="Times New Roman,Times New Roman_MSFontService,sans-serif" font-weight="400" font-size="9" transform="translate(177.25 243)">Host Binary</text><rect x="163.5" y="100.5" width="74" height="30" stroke="#000000" stroke-width="1.33333" stroke-miterlimit="8" fill="none"/><text font-family="Times New Roman,Times New Roman_MSFontService,sans-serif" font-weight="400" font-size="9" transform="translate(175.157 118)">Guest Binary</text><rect x="163.5" y="162.5" width="74" height="30" stroke="#000000" stroke-width="1.33333" stroke-miterlimit="8" fill="none"/><text font-family="Times New Roman,Times New Roman_MSFontService,sans-serif" font-weight="400" font-size="9" transform="translate(184.907 181)">TCG IR</text><path d="M193.5 150.5 197 150.5 197 135.5 204 135.5 204 150.5 207.5 150.5 200.5 157.5Z" stroke="#000000" stroke-width="1.33333" stroke-miterlimit="8" fill="none" fill-rule="evenodd"/><path d="M291.5 138.334C291.5 127.932 299.932 119.5 310.334 119.5L420.666 119.5C431.068 119.5 439.5 127.932 439.5 138.334L439.5 213.666C439.5 224.068 431.068 232.5 420.666 232.5L310.334 232.5C299.932 232.5 291.5 224.068 291.5 213.666Z" stroke="#000000" stroke-width="1.33333" stroke-miterlimit="8" stroke-dasharray="5.33333 4" fill="none" fill-rule="evenodd"/><rect x="299.5" y="146.5" width="45" height="18" stroke="#000000" stroke-width="1.33333" stroke-miterlimit="8" fill="none"/><text font-family="Times New Roman,Times New Roman_MSFontService,sans-serif" font-weight="400" font-size="9" transform="translate(311.735 158)">Code </text><rect x="344.5" y="205.5" width="45" height="18" stroke="#000000" stroke-width="1.33333" stroke-miterlimit="8" fill="none"/><text font-family="Times New Roman,Times New Roman_MSFontService,sans-serif" font-weight="400" font-size="9" transform="translate(357.015 218)">Code</text><rect x="299.5" y="178.5" width="45" height="18" stroke="#000000" stroke-width="1.33333" stroke-miterlimit="8" fill="none"/><text font-family="Times New Roman,Times New Roman_MSFontService,sans-serif" font-weight="400" font-size="9" transform="translate(311.735 190)">Code</text><rect x="389.5" y="177.5" width="44" height="18" stroke="#000000" stroke-width="1.33333" stroke-miterlimit="8" fill="none"/><text font-family="Times New Roman,Times New Roman_MSFontService,sans-serif" font-weight="400" font-size="9" transform="translate(401.095 189)">Code</text><rect x="389.5" y="145.5" width="44" height="18" stroke="#000000" stroke-width="1.33333" stroke-miterlimit="8" fill="none"/><text font-family="Times New Roman,Times New Roman_MSFontService,sans-serif" font-weight="400" font-size="9" transform="translate(401.095 157)">Code<tspan font-family="SimSun,SimSun_MSFontService,sans-serif" x="-76.7507" y="-21">翻译缓存中的代码块</tspan></text><path d="M323.167 164.5 323.167 167.125 323.167 169.438 323.167 172.208 321.834 172.208 321.834 169.438 321.834 167.125 321.834 164.5ZM326.5 170.875 322.5 178.875 318.5 170.875Z"/><path d="M0.439402-0.501368 17.1121 14.1107 16.2333 15.1134-0.439402 0.501368ZM18.3064 10.7251 21.6864 19.0061 13.0336 16.7415Z" transform="matrix(1 0 0 -1 389.5 214.506)"/><path d="M322.919 195.981 340.619 210.278 339.781 211.316 322.081 197.019ZM341.676 206.847 345.386 214.986 336.65 213.071Z"/><path d="M410.834 177.264 410.833 170.167 412.167 170.167 412.167 177.264ZM407.5 171.5 411.5 163.5 415.5 171.5Z"/><path d="M244.5 177.5 251.5 170.5 251.5 174 277.5 174 277.5 170.5 284.5 177.5 277.5 184.5 277.5 181 251.5 181 251.5 184.5Z" stroke="#000000" stroke-width="1.33333" stroke-miterlimit="8" fill="none" fill-rule="evenodd"/><text font-family="SimSun,SimSun_MSFontService,sans-serif" font-weight="400" font-size="9" transform="translate(255.62 169)">调用</text><path d="M193.5 212.5 197 212.5 197 197.5 204 197.5 204 212.5 207.5 212.5 200.5 219.5Z" stroke="#000000" stroke-width="1.33333" stroke-miterlimit="8" fill="none" fill-rule="evenodd"/></g></svg>