<svg width="720" height="1040" xmlns="http://www.w3.org/2000/svg" xmlns:xlink="http://www.w3.org/1999/xlink" overflow="hidden"><defs><clipPath id="clip0"><path d="M0 0 720 0 720 1040 0 1040Z" fill-rule="evenodd" clip-rule="evenodd"/></clipPath></defs><g clip-path="url(#clip0)"><rect x="0" y="0" width="720" height="1040" fill="#FFFFFF"/><rect x="73" y="94" width="73" height="33" stroke="#000000" stroke-width="2" stroke-miterlimit="8" fill="none"/><rect x="73" y="141" width="73" height="89" stroke="#000000" stroke-width="2" stroke-miterlimit="8" fill="none"/><text font-family="SimSun,SimSun_MSFontService,sans-serif" font-weight="400" font-size="9" transform="translate(90.8757 88)">建立模型</text><rect x="67.5001" y="73.5001" width="84" height="164" stroke="#000000" stroke-miterlimit="8" stroke-dasharray="4 3" fill="none"/><text font-family="Times New Roman,Times New Roman_MSFontService,sans-serif" font-weight="400" font-size="9" transform="translate(83.9475 113)">C++ Source<tspan x="-2.60798" y="58">C++ Source,</tspan><tspan x="-2.60798" y="69">Python</tspan><tspan x="26.2253" y="69">Source </tspan><tspan x="-2.60798" y="80">(TensorFlow</tspan>, <tspan x="-2.60798" y="92">PyTorch, et al)</tspan><tspan font-family="SimSun,SimSun_MSFontService,sans-serif" x="148.745" y="-25">部署</tspan><tspan font-family="SimSun,SimSun_MSFontService,sans-serif" x="273.072" y="-25">执行</tspan></text><rect x="206" y="94" width="73" height="33" stroke="#000000" stroke-width="2" stroke-miterlimit="8" fill="none"/><text font-family="SimSun,SimSun_MSFontService,sans-serif" font-weight="400" font-size="9" transform="translate(218.864 111)">RISC<tspan x="18.6667" y="0">-</tspan><tspan x="23.3333" y="0">V GNU </tspan><tspan x="0" y="11">toolchain</tspan></text><rect x="328" y="94" width="77" height="136" stroke="#000000" stroke-width="2" stroke-miterlimit="8" fill="none"/><text font-family="SimSun,SimSun_MSFontService,sans-serif" font-weight="400" font-size="9" transform="translate(338.353 149)">支持<tspan x="18.6667" y="0">RISC</tspan><tspan x="37.3333" y="0">-</tspan><tspan x="42" y="0">V</tspan><tspan x="46.6667" y="0">指</tspan><tspan x="0" y="11">令架构的微处</tspan><tspan x="18.6667" y="22">理器</tspan></text><rect x="205" y="141" width="73" height="34" stroke="#000000" stroke-width="2" stroke-miterlimit="8" fill="none"/><text font-family="SimSun,SimSun_MSFontService,sans-serif" font-weight="400" font-size="9" transform="translate(222.584 158)">X86指令架<tspan x="2.33333" y="11">构虚拟机</tspan></text><rect x="205" y="198" width="73" height="32" stroke="#000000" stroke-width="2" stroke-miterlimit="8" fill="none"/><text font-family="SimSun,SimSun_MSFontService,sans-serif" font-weight="400" font-size="9" transform="translate(223.359 217)">进程隔离</text><path d="M0 1.24999 30.5 1.24999 30.5 0 33 2.50002 30.5 5 30.5 3.75001 0 3.75001Z" stroke="#000000" stroke-miterlimit="8" fill-rule="evenodd" transform="matrix(1 0 0 -1 157.5 115.5)"/><path d="M0 1 32 1 32 0 34 2 32 4 32 3 0 3Z" stroke="#000000" stroke-miterlimit="8" fill-rule="evenodd" transform="matrix(1 0 0 -1 156.5 163.5)"/><path d="M0 1.24999 30.5 1.24999 30.5 0 33 2.50002 30.5 5 30.5 3.75001 0 3.75001Z" stroke="#000000" stroke-miterlimit="8" fill-rule="evenodd" transform="matrix(1 0 0 -1 157.5 217.5)"/><text font-family="SimSun,SimSun_MSFontService,sans-serif" font-weight="400" font-size="9" transform="translate(154.425 105)">交叉编译<tspan x="-3.00673" y="49">硬件虚拟化</tspan><tspan x="3.86876" y="101">容器化</tspan></text><path d="M0 1.25002 31.5 1.25002 31.5 0 34 2.5 31.5 5 31.5 3.75002 0 3.75002Z" stroke="#000000" stroke-miterlimit="8" fill-rule="evenodd" transform="matrix(1 0 0 -1 288.5 115.5)"/><path d="M0 1 31 1 31 0 33 2 31 4 31 3 0 3Z" stroke="#000000" stroke-miterlimit="8" fill-rule="evenodd" transform="matrix(1 0 0 -1 288.5 163.5)"/><path d="M0 1.25002 31.5 1.25002 31.5 0 34 2.5 31.5 5 31.5 3.75002 0 3.75002Z" stroke="#000000" stroke-miterlimit="8" fill-rule="evenodd" transform="matrix(1 0 0 -1 288.5 217.5)"/><rect x="200.5" y="73.5001" width="84" height="164" stroke="#000000" stroke-miterlimit="8" stroke-dasharray="4 3" fill="none"/><rect x="325.5" y="73.5001" width="83" height="164" stroke="#000000" stroke-miterlimit="8" stroke-dasharray="4 3" fill="none"/></g></svg>