<svg width="960" height="540" xmlns="http://www.w3.org/2000/svg" xmlns:xlink="http://www.w3.org/1999/xlink" overflow="hidden"><defs><clipPath id="clip0"><path d="M0 0 960 0 960 540 0 540Z" fill-rule="evenodd" clip-rule="evenodd"/></clipPath></defs><g clip-path="url(#clip0)"><rect x="0" y="0" width="960" height="540" fill="#FFFFFF"/><rect x="215.5" y="71.5001" width="94" height="99" stroke="#000000" stroke-width="1.33333" stroke-miterlimit="8" fill="#D0CECE"/><rect x="117.5" y="212.5" width="192" height="31" stroke="#000000" stroke-width="1.33333" stroke-miterlimit="8" fill="none"/><text font-family="Times New Roman,Times New Roman_MSFontService,sans-serif" font-weight="400" font-size="9" transform="translate(194.533 225)">Hardware<tspan x="-19.5" y="11">(QEMU </tspan><tspan x="13.3333" y="11">RISC</tspan><tspan x="34" y="11">-</tspan><tspan x="37.1667" y="11">V64</tspan>)</text><rect x="181.5" y="176.5" width="128" height="30" stroke="#000000" stroke-width="1.33333" stroke-miterlimit="8" fill="none"/><text font-family="Times New Roman,Times New Roman_MSFontService,sans-serif" font-weight="400" font-size="9" transform="translate(229.153 189)">Host<tspan x="20" y="0">OS</tspan><tspan x="-8.58665" y="11">(GNU</tspan><tspan x="14.58" y="11">/Linux)</tspan></text><rect x="117.5" y="71.5001" width="94" height="99" stroke="#000000" stroke-width="1.33333" stroke-miterlimit="8" fill="none"/><rect x="122.5" y="76.5001" width="84" height="18" stroke="#000000" stroke-width="1.33333" stroke-miterlimit="8" fill="#FFFFFF"/><text font-family="Times New Roman,Times New Roman_MSFontService,sans-serif" font-weight="400" font-size="9" transform="translate(149.014 88)">R<tspan x="6.16666" y="0">L</tspan><tspan font-family="Microsoft YaHei,Microsoft YaHei_MSFontService,sans-serif" x="11.8333" y="0">模型</tspan></text><rect x="219.5" y="76.5001" width="86" height="59" stroke="#000000" stroke-width="1.33333" stroke-miterlimit="8" fill="#D0CECE"/><rect x="122.5" y="96.5001" width="84" height="18" stroke="#000000" stroke-width="1.33333" stroke-miterlimit="8" fill="#FFFFFF"/><text font-family="Times New Roman,Times New Roman_MSFontService,sans-serif" font-weight="400" font-size="9" transform="translate(146.014 108)">Bins<tspan x="17.1667" y="0">/Libs</tspan><tspan x="4.58095" y="45">Virtual </tspan><tspan x="1.50095" y="56">Machine</tspan></text><rect x="122.5" y="117.5" width="84" height="18" stroke="#000000" stroke-width="1.33333" stroke-miterlimit="8" fill="#FFFFFF"/><text font-family="Times New Roman,Times New Roman_MSFontService,sans-serif" font-weight="400" font-size="9" transform="translate(146.264 129)">Guest OS</text><rect x="215.5" y="140.5" width="94" height="31" stroke="#000000" stroke-width="1.33333" stroke-miterlimit="8" fill="#D0CECE"/><text font-family="Times New Roman,Times New Roman_MSFontService,sans-serif" font-weight="400" font-size="9" transform="translate(229.05 153)">Container Engine<tspan x="7.5" y="11">(QEMU</tspan><tspan x="38" y="11">-</tspan><tspan x="41.1667" y="11">x86)</tspan></text><rect x="117.5" y="176.5" width="64" height="30" stroke="#000000" stroke-width="1.33333" stroke-miterlimit="8" fill="none"/><text font-family="Times New Roman,Times New Roman_MSFontService,sans-serif" font-weight="400" font-size="9" transform="translate(128.133 194)">Hypervisor</text><path d="M215.5 120.5 215.5 120.5" stroke="#4472C4" stroke-width="0.666667" stroke-miterlimit="8" fill="none" fill-rule="evenodd"/><text font-family="Times New Roman,Times New Roman_MSFontService,sans-serif" font-weight="400" font-size="9" transform="translate(243.467 128)">Container</text><rect x="223.5" y="76.5001" width="82" height="18" stroke="#000000" stroke-width="1.33333" stroke-miterlimit="8" fill="#FFFFFF"/><text font-family="Times New Roman,Times New Roman_MSFontService,sans-serif" font-weight="400" font-size="9" transform="translate(248.604 88)">R<tspan x="6.16667" y="0">L</tspan><tspan font-family="Microsoft YaHei,Microsoft YaHei_MSFontService,sans-serif" x="11.8333" y="0">模型</tspan></text><rect x="223.5" y="96.5001" width="82" height="18" stroke="#000000" stroke-width="1.33333" stroke-miterlimit="8" fill="#FFFFFF"/><text font-family="Times New Roman,Times New Roman_MSFontService,sans-serif" font-weight="400" font-size="9" transform="translate(245.604 108)">Bins<tspan x="17.1667" y="0">/Libs</tspan></text><rect x="117.5" y="140.5" width="94" height="30" stroke="#000000" stroke-width="1.33333" stroke-miterlimit="8" fill="none"/></g></svg>